<svg width="20" height="20" viewBox="0 0 20 20" fill="none" xmlns="http://www.w3.org/2000/svg">
<g clip-path="url(#clip0)">
<path d="M10 4.37582C6.64084 4.31916 3.16668 6.66666 0.982509 9.07082C0.753245 9.32535 0.626373 9.65577 0.626373 9.99832C0.626373 10.3409 0.753245 10.6713 0.982509 10.9258C3.11918 13.2792 6.58334 15.6808 10 15.6233C13.4167 15.6808 16.8817 13.2792 19.02 10.9258C19.2493 10.6713 19.3761 10.3409 19.3761 9.99832C19.3761 9.65577 19.2493 9.32535 19.02 9.07082C16.8333 6.66666 13.3592 4.31916 10 4.37582Z" stroke="#fff" stroke-width="1.5" stroke-linecap="round" stroke-linejoin="round"/>
<path d="M13.125 9.99998C13.1248 10.618 12.9414 11.2221 12.5979 11.7359C12.2545 12.2497 11.7663 12.6501 11.1953 12.8865C10.6243 13.1229 9.99597 13.1847 9.38983 13.064C8.7837 12.9433 8.22695 12.6456 7.79 12.2086C7.35304 11.7715 7.0555 11.2147 6.93499 10.6085C6.81448 10.0023 6.87641 9.37404 7.11296 8.80307C7.34951 8.2321 7.75005 7.74409 8.26393 7.40075C8.77782 7.0574 9.38197 6.87415 10 6.87415C10.4105 6.87404 10.817 6.95482 11.1962 7.11188C11.5755 7.26894 11.92 7.49919 12.2102 7.78949C12.5005 8.07978 12.7306 8.42442 12.8876 8.80371C13.0445 9.183 13.1252 9.5895 13.125 9.99998Z" stroke="#fff" stroke-width="1.5" stroke-linecap="round" stroke-linejoin="round"/>
</g>
<defs>
<clipPath id="clip0">
<rect width="20" height="20" fill="white"/>
</clipPath>
</defs>
</svg>
