<svg width="24" height="24" viewBox="0 0 24 24" fill="none" xmlns="http://www.w3.org/2000/svg">
<g clip-path="url(#clip0)">
<path d="M19.55 14.56C19.5353 14.682 19.4761 14.7942 19.3839 14.8754C19.2917 14.9565 19.1728 15.0009 19.05 15H17C16.8674 15 16.7402 15.0527 16.6464 15.1464C16.5527 15.2402 16.5 15.3674 16.5 15.5V23.5C16.5 23.6326 16.5527 23.7598 16.6464 23.8536C16.7402 23.9473 16.8674 24 17 24H23C23.2652 24 23.5196 23.8946 23.7071 23.7071C23.8946 23.5196 24 23.2652 24 23V1C24 0.734784 23.8946 0.48043 23.7071 0.292893C23.5196 0.105357 23.2652 0 23 0L1 0C0.734784 0 0.48043 0.105357 0.292893 0.292893C0.105357 0.48043 0 0.734784 0 1L0 23C0 23.2652 0.105357 23.5196 0.292893 23.7071C0.48043 23.8946 0.734784 24 1 24H12C12.1326 24 12.2598 23.9473 12.3536 23.8536C12.4473 23.7598 12.5 23.6326 12.5 23.5V15.5C12.5 15.3674 12.4473 15.2402 12.3536 15.1464C12.2598 15.0527 12.1326 15 12 15H10C9.86739 15 9.74021 14.9473 9.64645 14.8536C9.55268 14.7598 9.5 14.6326 9.5 14.5V11.5C9.5 11.3674 9.55268 11.2402 9.64645 11.1464C9.74021 11.0527 9.86739 11 10 11H12C12.1326 11 12.2598 10.9473 12.3536 10.8536C12.4473 10.7598 12.5 10.6326 12.5 10.5V9.19C12.5 7.68092 13.0995 6.23364 14.1666 5.16656C15.2336 4.09948 16.6809 3.5 18.19 3.5H19.5C19.6326 3.5 19.7598 3.55268 19.8536 3.64645C19.9473 3.74021 20 3.86739 20 4V7C20 7.13261 19.9473 7.25979 19.8536 7.35355C19.7598 7.44732 19.6326 7.5 19.5 7.5H18.19C17.7418 7.5 17.3119 7.67805 16.995 7.99499C16.6781 8.31193 16.5 8.74178 16.5 9.19V10.5C16.5 10.6326 16.5527 10.7598 16.6464 10.8536C16.7402 10.9473 16.8674 11 17 11H19.43C19.501 10.9995 19.5714 11.0141 19.6363 11.0429C19.7012 11.0717 19.7593 11.114 19.8066 11.167C19.8539 11.22 19.8894 11.2824 19.9106 11.3502C19.9319 11.418 19.9385 11.4895 19.93 11.56L19.55 14.56Z" fill="black"/>
</g>
<defs>
<clipPath id="clip0">
<rect width="24" height="24" fill="white"/>
</clipPath>
</defs>
</svg>
