<svg width="24" height="24" viewBox="0 0 24 24" fill="none" xmlns="http://www.w3.org/2000/svg">
<g clip-path="url(#clip0)">
<path d="M18.07 11.25C18.0323 11.2504 17.9952 11.2593 17.9614 11.2761C17.9276 11.2929 17.8981 11.3171 17.875 11.3469C17.8519 11.3768 17.8359 11.4114 17.8281 11.4483C17.8203 11.4852 17.8209 11.5234 17.83 11.56C18.0483 12.4438 18.0626 13.3657 17.8718 14.2558C17.681 15.146 17.2902 15.981 16.7289 16.6978C16.1677 17.4145 15.4507 17.9941 14.6322 18.3928C13.8138 18.7914 12.9154 18.9985 12.005 18.9985C11.0946 18.9985 10.1962 18.7914 9.37778 18.3928C8.55934 17.9941 7.84233 17.4145 7.28106 16.6978C6.71979 15.981 6.32898 15.146 6.13821 14.2558C5.94745 13.3657 5.96174 12.4438 6.18 11.56C6.18905 11.5234 6.18971 11.4852 6.18191 11.4483C6.17412 11.4114 6.15808 11.3768 6.13499 11.3469C6.11191 11.3171 6.08237 11.2929 6.0486 11.2761C6.01484 11.2593 5.97771 11.2504 5.94 11.25H0.5C0.367392 11.25 0.240215 11.3027 0.146447 11.3964C0.0526784 11.4902 0 11.6174 0 11.75L0 17.5C0.00264482 19.2231 0.688314 20.8749 1.90673 22.0933C3.12514 23.3117 4.7769 23.9974 6.5 24H17.5C19.2231 23.9974 20.8749 23.3117 22.0933 22.0933C23.3117 20.8749 23.9974 19.2231 24 17.5V11.75C24 11.6174 23.9473 11.4902 23.8536 11.3964C23.7598 11.3027 23.6326 11.25 23.5 11.25H18.07Z" fill="black"/>
<path d="M23.5 9.75003C23.6326 9.75003 23.7598 9.69736 23.8536 9.60359C23.9473 9.50982 24 9.38264 24 9.25003V6.50003C23.9974 4.77694 23.3117 3.12517 22.0933 1.90676C20.8749 0.688348 19.2231 0.00267879 17.5 3.3977e-05H11.75C11.6174 3.3977e-05 11.4902 0.0527124 11.3964 0.146481C11.3027 0.240249 11.25 0.367426 11.25 0.500034V4.50003C11.25 4.69895 11.171 4.88971 11.0303 5.03036C10.8897 5.17102 10.6989 5.25003 10.5 5.25003C10.3011 5.25003 10.1103 5.17102 9.96967 5.03036C9.82902 4.88971 9.75 4.69895 9.75 4.50003V0.500034C9.75 0.367426 9.69732 0.240249 9.60355 0.146481C9.50979 0.0527124 9.38261 3.3977e-05 9.25 3.3977e-05H8.75C8.61739 3.3977e-05 8.49021 0.0527124 8.39645 0.146481C8.30268 0.240249 8.25 0.367426 8.25 0.500034V4.50003C8.25 4.69895 8.17098 4.88971 8.03033 5.03036C7.88968 5.17102 7.69891 5.25003 7.5 5.25003C7.30109 5.25003 7.11032 5.17102 6.96967 5.03036C6.82902 4.88971 6.75 4.69895 6.75 4.50003V0.500034C6.75005 0.432656 6.73649 0.365962 6.71012 0.303957C6.68375 0.241953 6.64512 0.185918 6.59655 0.139217C6.54799 0.0925168 6.49048 0.0561144 6.42749 0.0321966C6.3645 0.0082787 6.29732 -0.00266118 6.23 3.3977e-05H5.68C5.55986 0.0170146 5.45 0.0771011 5.37088 0.169094C5.29177 0.261086 5.24881 0.378707 5.25 0.500034V4.50003C5.25 4.69895 5.17098 4.88971 5.03033 5.03036C4.88968 5.17102 4.69891 5.25003 4.5 5.25003C4.30109 5.25003 4.11032 5.17102 3.96967 5.03036C3.82902 4.88971 3.75 4.69895 3.75 4.50003V1.00003C3.74532 0.959158 3.73063 0.920068 3.70722 0.886232C3.68382 0.852395 3.65242 0.824859 3.61582 0.806065C3.57922 0.78727 3.53855 0.777799 3.49741 0.778492C3.45628 0.779184 3.41595 0.790019 3.38 0.810034C2.35868 1.36885 1.50618 2.19172 0.911606 3.19265C0.31703 4.19358 0.00219435 5.33583 0 6.50003L0 9.25003C0 9.38264 0.0526784 9.50982 0.146447 9.60359C0.240215 9.69736 0.367392 9.75003 0.5 9.75003H6.7C6.78017 9.75047 6.85927 9.73161 6.93062 9.69506C7.00198 9.65852 7.0635 9.60534 7.11 9.54003C7.66442 8.75788 8.39819 8.11997 9.24985 7.67973C10.1015 7.2395 11.0463 7.00976 12.005 7.00976C12.9637 7.00976 13.9085 7.2395 14.7601 7.67973C15.6118 8.11997 16.3456 8.75788 16.9 9.54003C16.9465 9.60534 17.008 9.65852 17.0794 9.69506C17.1507 9.73161 17.2298 9.75047 17.31 9.75003H23.5ZM17.5 4.50003C17.5 4.23482 17.6054 3.98046 17.7929 3.79293C17.9804 3.60539 18.2348 3.50003 18.5 3.50003H19.5C19.7652 3.50003 20.0196 3.60539 20.2071 3.79293C20.3946 3.98046 20.5 4.23482 20.5 4.50003V5.50003C20.5 5.76525 20.3946 6.0196 20.2071 6.20714C20.0196 6.39468 19.7652 6.50003 19.5 6.50003H18.5C18.2348 6.50003 17.9804 6.39468 17.7929 6.20714C17.6054 6.0196 17.5 5.76525 17.5 5.50003V4.50003Z" fill="black"/>
<path d="M12 16C13.6569 16 15 14.6569 15 13C15 11.3431 13.6569 10 12 10C10.3431 10 9 11.3431 9 13C9 14.6569 10.3431 16 12 16Z" fill="black"/>
</g>
<defs>
<clipPath id="clip0">
<rect width="24" height="24" fill="white"/>
</clipPath>
</defs>
</svg>
