<svg width="18" height="18" viewBox="0 0 18 18" fill="none" xmlns="http://www.w3.org/2000/svg">
<g clip-path="url(#clip0)">
<path d="M17.9025 9.18521C18.0049 8.84891 18.0271 8.49328 17.9673 8.14685C17.9075 7.80042 17.7673 7.47283 17.558 7.19034C17.3487 6.90786 17.0762 6.67834 16.7622 6.5202C16.4482 6.36206 16.1016 6.2797 15.75 6.27972H12.075C11.9601 6.27975 11.8468 6.2534 11.7437 6.20269C11.6406 6.15198 11.5506 6.07827 11.4805 5.98725C11.4104 5.89623 11.3622 5.79032 11.3395 5.6777C11.3168 5.56508 11.3203 5.44876 11.3498 5.33772L12.0105 2.83047C12.1318 2.36935 12.0872 1.88028 11.8846 1.44868C11.682 1.01707 11.3342 0.670369 10.9019 0.469119C10.4697 0.267869 9.98048 0.224865 9.51975 0.347619C9.05902 0.470372 8.65606 0.75108 8.38125 1.14072L4.7115 6.33672C4.64223 6.43503 4.55033 6.51524 4.44356 6.57058C4.33678 6.62593 4.21827 6.65478 4.098 6.65472H2.55675C2.47943 6.436 2.33638 6.24654 2.14721 6.11228C1.95803 5.97802 1.73198 5.90552 1.5 5.90472H0.375C0.275544 5.90472 0.180161 5.94422 0.109835 6.01455C0.0395088 6.08488 0 6.18026 0 6.27972L0 16.7797C0 16.8792 0.0395088 16.9746 0.109835 17.0449C0.180161 17.1152 0.275544 17.1547 0.375 17.1547H1.5C1.79837 17.1547 2.08452 17.0362 2.2955 16.8252C2.50647 16.6142 2.625 16.3281 2.625 16.0297V15.5595C6.46575 17.4915 7.3065 17.7202 9.90825 17.7202C10.1715 17.7202 11.6588 17.7052 12.1988 17.7052C14.2988 17.7052 15.6975 16.4955 16.4738 13.9867L17.8988 9.21896C17.8958 9.20772 17.8995 9.19646 17.9025 9.18521ZM16.47 8.74047L16.4633 8.76147L15.0315 13.5615C14.4615 15.4132 13.614 16.2022 12.1995 16.2022C11.6535 16.2022 11.1743 16.2075 10.7445 16.212C7.61325 16.2465 7.30425 16.2465 2.83125 13.9807C2.76986 13.9498 2.71815 13.9026 2.68178 13.8442C2.6454 13.7859 2.62576 13.7187 2.625 13.65V8.52971C2.625 8.43026 2.66451 8.33488 2.73484 8.26455C2.80516 8.19422 2.90054 8.15472 3 8.15472H4.098C4.45854 8.15422 4.8137 8.06725 5.13368 7.90113C5.45367 7.735 5.72915 7.49456 5.937 7.19997L9.60375 2.00472C9.65357 1.94013 9.71704 1.88733 9.78962 1.8501C9.8622 1.81287 9.9421 1.79211 10.0236 1.78932C10.1051 1.78652 10.1863 1.80176 10.2612 1.83394C10.3362 1.86611 10.4031 1.91444 10.4573 1.97547C10.5097 2.04046 10.5462 2.11687 10.5638 2.19854C10.5814 2.28022 10.5796 2.36488 10.5585 2.44571L9.9 4.95521C9.81206 5.2882 9.80174 5.63693 9.86983 5.97453C9.93792 6.31214 10.0826 6.62961 10.2927 6.90248C10.5028 7.17535 10.7728 7.39635 11.0818 7.54844C11.3908 7.70053 11.7306 7.77965 12.075 7.77972H15.75C15.8665 7.7798 15.9813 7.807 16.0854 7.85916C16.1895 7.91132 16.2801 7.98701 16.3499 8.08024C16.4197 8.17346 16.4668 8.28166 16.4875 8.39626C16.5082 8.51085 16.502 8.6287 16.4693 8.74047H16.47Z" fill="#C6C6C6"/>
</g>
<defs>
<clipPath id="clip0">
<rect width="18" height="18" fill="white"/>
</clipPath>
</defs>
</svg>
