<svg width="18" height="18" viewBox="0 0 18 18" fill="#fff" xmlns="http://www.w3.org/2000/svg">
<path d="M17.9025 9.18525C18.0049 8.84894 18.0271 8.49331 17.9673 8.14688C17.9075 7.80045 17.7673 7.47286 17.558 7.19037C17.3487 6.90789 17.0762 6.67837 16.7622 6.52023C16.4482 6.36209 16.1016 6.27973 15.75 6.27975H12.075C11.9601 6.27978 11.8468 6.25343 11.7437 6.20272C11.6406 6.15201 11.5506 6.0783 11.4805 5.98728C11.4104 5.89626 11.3622 5.79035 11.3395 5.67773C11.3168 5.56511 11.3203 5.44879 11.3498 5.33775L12.0105 2.8305C12.1318 2.36938 12.0872 1.88031 11.8846 1.44871C11.682 1.0171 11.3342 0.6704 10.9019 0.46915C10.4697 0.2679 9.98048 0.224896 9.51975 0.347649C9.05902 0.470403 8.65606 0.751111 8.38125 1.14075L4.7115 6.33675C4.64223 6.43506 4.55033 6.51527 4.44356 6.57061C4.33678 6.62596 4.21827 6.65481 4.098 6.65475H2.55675C2.47943 6.43603 2.33638 6.24657 2.14721 6.11231C1.95803 5.97805 1.73198 5.90555 1.5 5.90475H0.375C0.275544 5.90475 0.180161 5.94425 0.109835 6.01458C0.0395088 6.08491 0 6.18029 0 6.27975L0 16.7797C0 16.8792 0.0395088 16.9746 0.109835 17.0449C0.180161 17.1152 0.275544 17.1547 0.375 17.1547H1.5C1.79837 17.1547 2.08452 17.0362 2.2955 16.8252C2.50647 16.6143 2.625 16.3281 2.625 16.0297V15.5595C6.46575 17.4915 7.3065 17.7202 9.90825 17.7202C10.1715 17.7202 11.6588 17.7052 12.1988 17.7052C14.2988 17.7052 15.6975 16.4955 16.4738 13.9867L17.8988 9.219C17.8958 9.20775 17.8995 9.1965 17.9025 9.18525ZM16.47 8.7405L16.4633 8.7615L15.0315 13.5615C14.4615 15.4132 13.614 16.2022 12.1995 16.2022C11.6535 16.2022 11.1743 16.2075 10.7445 16.212C7.61325 16.2465 7.30425 16.2465 2.83125 13.9807C2.76986 13.9498 2.71815 13.9026 2.68178 13.8443C2.6454 13.7859 2.62576 13.7187 2.625 13.65V8.52975C2.625 8.43029 2.66451 8.33491 2.73484 8.26458C2.80516 8.19425 2.90054 8.15475 3 8.15475H4.098C4.45854 8.15425 4.8137 8.06728 5.13368 7.90116C5.45367 7.73503 5.72915 7.49459 5.937 7.2L9.60375 2.00475C9.65357 1.94016 9.71704 1.88736 9.78962 1.85013C9.8622 1.8129 9.9421 1.79214 10.0236 1.78935C10.1051 1.78656 10.1863 1.80179 10.2612 1.83397C10.3362 1.86614 10.4031 1.91447 10.4573 1.9755C10.5097 2.04049 10.5462 2.1169 10.5638 2.19857C10.5814 2.28025 10.5796 2.36491 10.5585 2.44575L9.9 4.95525C9.81206 5.28823 9.80174 5.63696 9.86983 5.97456C9.93792 6.31217 10.0826 6.62964 10.2927 6.90251C10.5028 7.17538 10.7728 7.39638 11.0818 7.54847C11.3908 7.70056 11.7306 7.77968 12.075 7.77975H15.75C15.8665 7.77983 15.9813 7.80703 16.0854 7.85919C16.1895 7.91135 16.2801 7.98705 16.3499 8.08027C16.4197 8.1735 16.4668 8.28169 16.4875 8.39629C16.5082 8.51089 16.502 8.62873 16.4693 8.7405H16.47Z" fill="#4F4F4F"/>
</svg>
