<svg width="24" height="24" viewBox="0 0 24 24" fill="none" xmlns="http://www.w3.org/2000/svg">
<path d="M23.32 6.44006C23.3912 6.38091 23.4445 6.30318 23.4742 6.21552C23.5038 6.12786 23.5085 6.0337 23.4877 5.94352C23.467 5.85335 23.4216 5.77069 23.3567 5.70476C23.2918 5.63882 23.2099 5.59219 23.12 5.57006L22.33 5.37006C22.2582 5.35208 22.1913 5.31836 22.1341 5.27135C22.0768 5.22435 22.0308 5.16522 21.9992 5.09824C21.9676 5.03126 21.9513 4.9581 21.9515 4.88405C21.9516 4.81001 21.9682 4.73691 22 4.67006L22.44 3.78006C22.4816 3.69382 22.4975 3.59745 22.4859 3.50242C22.4744 3.40739 22.4357 3.31768 22.3746 3.24397C22.3136 3.17025 22.2326 3.11561 22.1414 3.08656C22.0501 3.0575 21.9525 3.05525 21.86 3.08006L19.86 3.64006C19.7855 3.66179 19.707 3.66588 19.6306 3.65199C19.5542 3.63811 19.4821 3.60663 19.42 3.56006C18.5546 2.91095 17.5019 2.56006 16.42 2.56006C15.094 2.56006 13.8222 3.08684 12.8845 4.02452C11.9468 4.96221 11.42 6.23398 11.42 7.56006V7.92006C11.4205 7.98148 11.3983 8.04091 11.3577 8.08702C11.3171 8.13313 11.261 8.16269 11.2 8.17006C8.39004 8.50006 5.70004 7.07006 2.80004 3.73006C2.73704 3.66058 2.65611 3.60982 2.56613 3.58335C2.47615 3.55689 2.38062 3.55575 2.29004 3.58006C2.20844 3.61757 2.13844 3.67636 2.08741 3.75027C2.03638 3.82417 2.0062 3.91046 2.00004 4.00006C1.5995 5.6454 1.76144 7.37748 2.46004 8.92006C2.48071 8.96097 2.48973 9.00678 2.48612 9.05248C2.48251 9.09818 2.46641 9.142 2.43957 9.17916C2.41273 9.21632 2.37619 9.24539 2.33395 9.26319C2.2917 9.28098 2.24538 9.28682 2.20004 9.28006L1.08004 9.06006C1.0005 9.04727 0.919052 9.05389 0.842623 9.07936C0.766194 9.10482 0.69705 9.14837 0.641076 9.20631C0.585102 9.26425 0.543957 9.33486 0.521142 9.41212C0.498327 9.48938 0.494519 9.57101 0.510041 9.65006C0.59638 10.4175 0.854215 11.1557 1.26446 11.81C1.67471 12.4643 2.22686 13.018 2.88004 13.4301C2.92231 13.4505 2.95796 13.4825 2.9829 13.5223C3.00784 13.5621 3.02107 13.6081 3.02107 13.6551C3.02107 13.702 3.00784 13.748 2.9829 13.7878C2.95796 13.8276 2.92231 13.8596 2.88004 13.8801L2.35004 14.0901C2.28568 14.1159 2.22738 14.1548 2.17886 14.2043C2.13035 14.2539 2.09266 14.313 2.06821 14.3778C2.04376 14.4427 2.03307 14.512 2.03683 14.5812C2.04059 14.6505 2.05871 14.7182 2.09004 14.7801C2.38313 15.4214 2.8274 15.9821 3.38474 16.414C3.94208 16.8459 4.59587 17.1363 5.29004 17.2601C5.3383 17.2776 5.38 17.3095 5.40947 17.3516C5.43894 17.3936 5.45475 17.4437 5.45475 17.4951C5.45475 17.5464 5.43894 17.5965 5.40947 17.6385C5.38 17.6806 5.3383 17.7125 5.29004 17.7301C3.9304 18.2924 2.47131 18.5747 1.00004 18.5601C0.867432 18.5335 0.72972 18.5608 0.617198 18.6358C0.504676 18.7108 0.426562 18.8274 0.400041 18.9601C0.373519 19.0927 0.400762 19.2304 0.475777 19.3429C0.550791 19.4554 0.667432 19.5335 0.800041 19.5601C3.34759 20.7683 6.12122 21.4259 8.94004 21.4901C11.4195 21.5279 13.8548 20.8321 15.94 19.4901C17.6553 18.3451 19.0606 16.7936 20.0307 14.9737C21.0008 13.1539 21.5056 11.1223 21.5 9.06006V8.19006C21.5007 8.11745 21.5171 8.04584 21.5482 7.98022C21.5792 7.91459 21.6242 7.85653 21.68 7.81006L23.32 6.44006Z" fill="black"/>
</svg>
